<?xml version="1.0" encoding="UTF-8" standalone="no"?>
<!-- Created with Inkscape (http://www.inkscape.org/) -->

<svg
   width="200mm"
   height="200mm"
   viewBox="0 0 200 200"
   version="1.1"
   id="svg1"
   xml:space="preserve"
   xmlns="http://www.w3.org/2000/svg"
   xmlns:svg="http://www.w3.org/2000/svg"><defs
     id="defs1" /><g
     id="layer1"
     style="fill:none"><g
       id="g3"
       transform="matrix(4.7619101,0,0,4.6944526,29.290158,61.589777)"
       style="display:inline;fill:#000000;fill-opacity:1"><path
         d="M 11.3864,3.3606 H 5.22535 C 4.19374,3.3606 3.31872,3.49377 2.80997,4.00562 2.30788,4.51748 2.17471,5.36676 2.17471,6.40147 v 3.5714 c 0,1.02143 0.13006,1.87683 0.63526,2.38563 0.51186,0.5021 1.37711,0.645 2.3954,0.645 h 4.65294 l -0.22589,0.6027 c -0.22076,0.5882 -0.18957,1.1291 0.00501,1.572 H 5.47214 c -1.85269,0 -3.2372,-0.2214 -4.25193,-1.2299 C 0.211698,12.9428 0,11.5748 0,9.70609 V 6.63805 C 0,4.79602 0.211698,3.42438 1.22021,2.41587 2.23183,1.40735 3.61945,1.18589 5.45882,1.18589 H 13.1472 Z M 25.0202,2.41587 c 1.0116,1.00541 1.2233,2.37349 1.2233,4.24216 v 3.04806 c 0,1.86871 -0.2117,3.23051 -1.2233,4.24221 -1.0085,1.0085 -2.3961,1.2299 -4.2555,1.2299 H 13.371 l 1.7608,-2.1747 h 5.9063 c 1.0183,0 1.8867,-0.1398 2.3888,-0.645 0.5087,-0.5119 0.6419,-1.3642 0.6419,-2.38563 V 6.38149 C 24.0688,5.3601 23.9387,4.51438 23.4269,4.00562 22.9186,3.50353 22.0564,3.3606 21.0381,3.3606 H 16.659 L 16.8858,2.75481 C 17.1063,2.16818 17.0755,1.62832 16.8816,1.18589 h 3.8831 c 1.8594,0 3.2439,0.22146 4.2555,1.22998 z m 4.6779,5.76286 c 0,1.61836 -1.1283,2.69477 -1.965,2.74667 V 5.43872 c 0.8367,0.05193 1.965,1.12521 1.965,2.74001 z"
         fill="#ffffff"
         fill-opacity="0.85"
         id="path1"
         style="fill:#000000;fill-opacity:1" /><path
         d="M 7.95498,7.59864 C 7.64383,7.97815 7.45607,8.4411 7.45607,8.92713 c 0,1.07283 0.87842,1.93487 1.96723,1.93487 h 1.2377 l -0.3176,0.8472 H 4.9238 C 4.37153,11.7092 4.03325,11.624 3.79707,11.3878 3.5609,11.1516 3.47877,10.82 3.47877,10.2611 V 6.11635 c 0,-0.5687 0.08213,-0.90698 0.3183,-1.14315 C 4.02659,4.73703 4.36487,4.6549 4.94378,4.6549 H 10.3385 Z M 22.4464,4.9732 c 0.2295,0.23617 0.3183,0.56779 0.3183,1.12983 v 4.15807 c 0,0.5589 -0.0888,0.8905 -0.3183,1.1267 -0.2361,0.2362 -0.5678,0.3214 -1.1298,0.3214 h -5.1368 l 2.3835,-2.94371 c 0.3111,-0.37951 0.4989,-0.84246 0.4989,-1.3316 0,-1.07283 -0.8784,-1.93172 -1.9672,-1.93172 H 15.8573 L 16.1745,4.6549 h 5.1421 c 0.5554,0 0.8937,0.08213 1.1298,0.3183 z"
         fill="#ffffff"
         fill-opacity="0.85"
         id="path2"
         style="fill:#000000;fill-opacity:1" /><path
         d="m 8.87426,8.92713 c 0,0.29072 0.23568,0.50998 0.53927,0.50998 h 3.30127 l -1.7614,4.66849 c -0.2681,0.7274 0.5171,1.1438 0.9982,0.5588 L 17.446,7.87686 c 0.1101,-0.13938 0.1847,-0.29117 0.1847,-0.44297 0,-0.28762 -0.2388,-0.50998 -0.5424,-0.50998 H 13.7902 L 15.5484,2.25856 C 15.8196,1.53108 15.0344,1.11475 14.5533,1.69975 L 9.0558,8.48061 C 8.94217,8.62354 8.87426,8.77533 8.87426,8.92713 Z"
         fill="#ffffff"
         fill-opacity="0.85"
         id="path3"
         style="fill:#000000;fill-opacity:1" /></g></g></svg>
